
<svg xmlns="http://www.w3.org/2000/svg" fill="none" viewBox="0 0 240 240">
<path d="M142.8 58.3423V53.3423H138.82L137.927 57.2212L142.8 58.3423ZM171.6 58.3423L176.404 59.7287L178.247 53.3423H171.6V58.3423ZM137.314 177.142V182.142H141.075L142.118 178.529L137.314 177.142ZM102.686 177.142L97.88 178.522L98.9195 182.142H102.686V177.142ZM68.5715 58.3423V53.3423H61.9336L63.7657 59.7223L68.5715 58.3423ZM98.4 58.3423L103.275 57.2294L102.387 53.3423H98.4V58.3423ZM120.514 155.199L115.64 156.312L125.387 156.321L120.514 155.199ZM142.8 63.3423H171.6V53.3423H142.8V63.3423ZM166.796 56.9559L132.51 175.756L142.118 178.529L176.404 59.7287L166.796 56.9559ZM137.314 172.142H102.686V182.142H137.314V172.142ZM107.492 175.762L73.3773 56.9623L63.7657 59.7223L97.88 178.522L107.492 175.762ZM68.5715 63.3423H98.4V53.3423H68.5715V63.3423ZM93.5255 59.4553L115.64 156.312L125.389 154.087L103.275 57.2294L93.5255 59.4553ZM125.387 156.321L147.673 59.4635L137.927 57.2212L115.642 154.078L125.387 156.321Z" fill="currentColor"/>
</svg>
